<?xml version="1.0" encoding="utf-8"?>
<!DOCTYPE svg PUBLIC "-//W3C//DTD SVG 20010904//EN" "http://www.w3.org/TR/2001/REC-SVG-20010904/DTD/svg10.dtd">
<svg version="1.0" xmlns="http://www.w3.org/2000/svg" width="299pt" height="184pt" viewBox="0 0 299 184" style="" preserveAspectRatio="xMidYMid meet">
<g fill="#5485ADFF" stroke="#5485ADFF">
<path d="M 117.310 3.710 C 107.322 13.041 90.594 49.278 85.999 71.537 C 84.346 79.547 82.744 82.450 72.159 96.625 C 60.617 112.080 54.341 117.195 48.999 115.500 C 45.232 114.304 44.914 111.789 47.667 104.972 C 52.304 93.492 54.262 76.667 51.667 70.588 L 50.424 67.677 47.191 71.759 C 42.938 77.129 40.418 83.036 38.985 91.000 C 37.795 97.609 38.305 105.833 40.114 109.213 C 41.463 111.733 38.030 117.241 32.709 121.096 C 29.645 123.316 27.598 124.000 24.024 124.000 C 16.393 124.000 13.000 118.689 13.000 106.741 C 13.000 101.205 13.240 100.667 18.883 93.566 C 36.900 70.894 47.798 48.474 51.010 27.474 C 52.387 18.470 51.942 2.808 50.293 2.262 C 48.289 1.598 40.358 10.381 33.607 20.739 C 20.987 40.101 9.640 64.296 4.876 82.000 C 3.065 88.733 2.580 93.203 2.545 103.500 C 2.502 115.964 2.615 116.696 5.289 121.244 C 11.856 132.416 24.995 132.454 37.004 121.336 C 42.525 116.224 43.202 115.868 44.776 117.250 C 47.843 119.942 50.737 120.210 55.223 118.218 C 60.304 115.961 70.209 105.669 76.711 95.891 C 79.240 92.088 81.434 89.100 81.586 89.253 C 81.738 89.405 81.247 93.648 80.495 98.681 C 77.476 118.895 83.088 130.358 96.000 130.348 C 102.765 130.344 108.387 126.878 119.070 116.129 L 128.640 106.500 129.747 112.332 C 130.356 115.539 131.859 119.629 133.087 121.422 C 141.247 133.330 160.194 133.548 173.476 121.887 L 177.008 118.786 181.114 120.429 C 185.042 122.001 185.408 121.981 189.565 119.969 C 191.954 118.812 196.404 115.170 199.454 111.876 L 205.000 105.886 205.000 111.483 C 205.000 117.781 207.657 124.104 211.263 126.387 C 220.690 132.356 231.795 126.023 243.726 107.876 L 248.500 100.613 245.250 111.057 C 242.440 120.087 241.174 125.196 239.443 134.500 C 239.238 135.600 235.954 138.869 232.146 141.764 C 224.468 147.601 218.139 155.171 214.996 162.275 C 212.692 167.485 211.380 178.754 212.831 180.874 C 214.299 183.019 223.245 177.693 231.096 170.000 C 236.324 164.876 238.698 161.488 242.304 154.000 C 244.820 148.775 247.182 142.811 247.551 140.747 C 248.097 137.704 249.384 136.068 254.362 132.091 C 270.353 119.317 297.000 87.797 297.000 81.654 C 297.000 80.230 296.141 80.894 293.835 84.100 C 288.695 91.247 279.154 102.904 271.060 111.929 C 263.873 119.942 251.081 131.415 250.255 130.588 C 250.043 130.376 252.818 120.594 256.423 108.851 C 260.028 97.108 263.936 83.700 265.109 79.056 L 267.240 70.613 265.094 68.875 C 259.609 64.434 242.242 65.661 231.597 71.243 C 223.639 75.415 212.396 86.718 208.500 94.464 C 206.823 97.797 202.374 103.678 198.413 107.796 C 192.431 114.015 190.888 115.113 188.514 114.832 C 183.795 114.275 183.281 111.994 186.337 105.184 C 192.546 91.348 191.795 79.945 184.128 71.661 C 177.430 64.423 166.890 63.531 155.035 69.197 C 148.035 72.543 137.040 84.190 132.648 92.912 C 125.946 106.223 111.242 121.649 102.862 124.159 C 99.691 125.110 98.672 125.015 96.462 123.567 C 92.004 120.646 90.677 115.825 91.281 104.739 L 91.812 94.979 99.341 83.739 C 108.375 70.254 116.067 54.602 119.383 42.954 C 123.908 27.066 124.995 7.110 121.589 2.453 C 120.521 0.992 120.081 1.122 117.310 3.710 M 176.485 71.250 C 177.913 72.488 179.703 75.300 180.463 77.500 C 181.725 81.158 181.673 81.757 179.850 84.500 C 175.075 91.687 173.581 96.362 173.380 104.741 C 173.197 112.402 172.953 113.272 169.906 117.119 C 164.718 123.669 159.452 127.000 154.284 127.000 C 148.400 127.000 146.200 125.654 143.937 120.669 C 138.268 108.183 147.242 81.357 160.237 71.943 C 165.501 68.130 172.538 67.830 176.485 71.250 M 256.341 72.169 C 258.588 75.751 241.890 107.039 232.661 116.539 C 225.237 124.182 218.317 125.216 216.152 119.007 C 212.572 108.736 226.783 82.294 240.912 72.935 C 244.703 70.424 246.307 69.962 250.385 70.206 C 253.644 70.401 255.646 71.061 256.341 72.169 M 42.562 22.650 C 44.382 37.218 39.705 55.404 29.925 71.789 C 24.063 81.611 15.210 93.543 14.392 92.726 C 12.769 91.102 23.565 50.639 29.119 37.532 C 32.616 29.279 39.705 17.000 40.973 17.000 C 41.459 17.000 42.174 19.543 42.562 22.650 M 114.257 33.000 C 114.397 49.153 109.552 63.554 98.614 79.497 L 94.500 85.494 94.709 79.497 C 95.158 66.598 102.152 39.292 108.577 25.350 C 111.970 17.987 112.256 17.655 113.181 20.000 C 113.723 21.375 114.207 27.225 114.257 33.000 M 239.000 143.106 C 239.000 145.830 235.638 156.781 233.516 160.969 C 230.950 166.032 222.524 174.442 220.975 173.485 C 219.114 172.335 219.955 163.635 222.422 158.500 C 225.312 152.488 228.165 149.021 233.500 145.040 C 237.836 141.805 239.000 141.396 239.000 143.106 "/></g>
</svg>
