<?xml version="1.0" encoding="utf-8"?>
<!DOCTYPE svg PUBLIC "-//W3C//DTD SVG 20010904//EN" "http://www.w3.org/TR/2001/REC-SVG-20010904/DTD/svg10.dtd">
<svg version="1.0" xmlns="http://www.w3.org/2000/svg" width="179pt" height="84pt" viewBox="0 0 179 84" style="" preserveAspectRatio="xMidYMid meet">
<g fill="#5485ADFF" stroke="#5485ADFF">
<path d="M 87.051 3.946 C 85.036 4.456 84.157 5.935 82.097 12.283 C 79.646 19.839 79.525 20.000 76.297 20.000 C 74.484 20.000 73.000 20.450 73.000 21.000 C 73.000 21.550 74.356 22.000 76.013 22.000 L 79.027 22.000 77.569 25.489 C 75.428 30.613 70.625 37.259 63.751 44.607 C 58.880 49.814 57.163 51.042 55.088 50.801 C 51.279 50.358 51.399 47.991 55.955 33.641 C 58.180 26.635 60.000 20.312 60.000 19.590 C 60.000 17.414 55.144 18.956 54.427 21.360 C 52.729 27.054 29.077 54.411 27.348 52.682 C 27.044 52.377 28.660 45.861 30.940 38.200 C 36.419 19.796 36.468 18.854 32.000 17.830 C 18.180 14.665 2.088 27.797 2.022 42.295 C 2.005 46.072 2.522 47.613 4.455 49.545 C 9.155 54.246 15.578 51.617 21.618 42.520 C 23.645 39.467 25.461 37.128 25.654 37.321 C 25.847 37.514 25.171 40.108 24.152 43.086 C 23.133 46.064 21.974 50.250 21.578 52.389 C 21.024 55.376 19.561 57.462 15.270 61.384 C 12.197 64.193 8.864 68.293 7.863 70.495 C 6.034 74.522 5.328 82.000 6.777 82.000 C 7.940 82.000 12.070 79.093 15.872 75.599 C 19.017 72.708 24.997 62.018 24.999 59.283 C 25.000 58.613 28.488 54.710 32.750 50.608 C 37.013 46.507 42.975 40.004 46.000 36.158 L 51.500 29.165 49.221 37.332 C 46.159 48.309 46.240 51.760 49.587 53.033 C 54.759 54.999 63.375 48.780 73.187 36.000 L 75.874 32.500 74.437 37.409 C 72.172 45.147 72.520 50.639 75.394 52.523 C 79.223 55.031 82.821 53.396 90.250 45.772 C 96.510 39.347 97.000 39.039 97.000 41.521 C 97.000 45.462 99.721 50.513 102.701 52.105 C 109.266 55.613 120.712 51.975 128.634 43.863 L 132.472 39.932 133.986 44.626 C 138.076 57.306 152.895 56.257 166.038 42.357 C 172.512 35.512 175.450 31.471 176.478 28.000 C 176.900 26.578 175.404 28.088 173.012 31.500 C 163.998 44.353 155.158 51.273 147.749 51.273 C 143.169 51.273 140.000 48.519 140.000 44.539 C 140.000 42.727 141.274 41.759 146.679 39.461 C 155.649 35.649 162.000 29.582 162.000 24.826 C 162.000 18.618 156.136 15.665 149.392 18.478 C 144.497 20.520 139.586 25.192 136.229 31.000 C 125.102 50.249 106.698 58.046 103.485 44.871 C 102.893 42.443 103.214 42.116 107.672 40.604 C 118.664 36.877 127.077 28.426 125.611 22.585 C 124.680 18.876 119.223 16.568 114.480 17.878 C 108.699 19.474 105.136 22.830 98.497 32.931 C 91.593 43.435 84.263 51.000 80.991 51.000 C 76.971 51.000 77.176 48.834 83.095 28.750 C 84.971 22.387 85.254 22.000 88.042 22.000 C 89.669 22.000 91.000 21.550 91.000 21.000 C 91.000 20.450 89.875 20.000 88.500 20.000 C 85.489 20.000 85.507 20.384 88.077 11.224 C 89.220 7.153 90.007 3.710 89.827 3.574 C 89.647 3.437 88.398 3.605 87.051 3.946 M 30.000 20.003 C 31.269 20.825 30.680 22.574 26.186 31.333 C 20.341 42.724 15.096 49.000 11.421 49.000 C 5.405 49.000 6.374 40.572 13.628 29.804 C 19.799 20.644 25.617 17.161 30.000 20.003 M 120.002 21.004 C 122.532 25.731 117.184 34.417 109.300 38.388 C 103.546 41.286 102.882 40.767 104.650 34.750 C 105.499 31.863 107.156 27.771 108.332 25.659 C 111.717 19.579 117.916 17.107 120.002 21.004 M 155.800 20.200 C 160.316 24.716 151.750 37.268 142.581 39.569 C 139.322 40.387 139.255 39.071 142.160 31.288 C 145.577 22.131 152.281 16.681 155.800 20.200 M 20.512 62.250 C 18.610 69.127 16.511 73.234 13.678 75.626 L 10.500 78.308 10.153 75.948 C 9.555 71.870 11.890 66.304 15.547 63.093 C 19.730 59.420 21.372 59.142 20.512 62.250 "/></g>
<g fill="#5485ADFF" stroke="#5485ADFF">
<path d="M 58.170 4.526 C 57.144 6.777 57.283 7.172 59.446 8.157 C 64.093 10.275 67.196 6.387 63.250 3.392 C 60.670 1.434 59.455 1.705 58.170 4.526 "/></g>
</svg>
