<?xml version="1.0" encoding="utf-8"?>
<!DOCTYPE svg PUBLIC "-//W3C//DTD SVG 20010904//EN" "http://www.w3.org/TR/2001/REC-SVG-20010904/DTD/svg10.dtd">
<svg version="1.0" xmlns="http://www.w3.org/2000/svg" width="242pt" height="104pt" viewBox="0 0 242 104" style="" preserveAspectRatio="xMidYMid meet">
<g fill="#5485ADFF" stroke="#5485ADFF">
<path d="M 122.426 5.509 C 118.282 9.904 111.233 24.195 107.387 36.000 C 101.571 53.851 81.301 77.160 78.329 69.414 C 77.744 67.891 78.789 63.363 83.095 48.750 C 84.971 42.387 85.254 42.000 88.042 42.000 C 89.669 42.000 91.000 41.550 91.000 41.000 C 91.000 40.450 89.875 40.000 88.500 40.000 C 85.493 40.000 85.506 40.220 88.000 31.500 C 90.502 22.751 90.528 23.032 87.292 23.897 C 84.973 24.517 84.224 25.729 82.088 32.311 C 79.646 39.837 79.524 40.000 76.297 40.000 C 74.484 40.000 73.000 40.450 73.000 41.000 C 73.000 41.550 74.356 42.000 76.013 42.000 L 79.027 42.000 77.569 45.489 C 75.428 50.613 70.625 57.259 63.751 64.607 C 58.880 69.814 57.163 71.042 55.088 70.801 C 51.279 70.358 51.399 67.991 55.955 53.641 C 58.180 46.635 60.000 40.312 60.000 39.590 C 60.000 37.414 55.144 38.956 54.427 41.360 C 52.729 47.054 29.077 74.411 27.348 72.682 C 27.044 72.377 28.660 65.861 30.940 58.200 C 36.419 39.796 36.468 38.854 32.000 37.830 C 18.180 34.665 2.088 47.797 2.022 62.295 C 2.005 66.072 2.522 67.613 4.455 69.545 C 9.155 74.246 15.578 71.617 21.618 62.520 C 23.645 59.467 25.461 57.128 25.654 57.321 C 25.847 57.514 25.171 60.108 24.152 63.086 C 23.133 66.064 21.974 70.250 21.578 72.389 C 21.024 75.376 19.561 77.462 15.270 81.384 C 12.197 84.193 8.864 88.293 7.863 90.495 C 6.034 94.522 5.328 102.000 6.777 102.000 C 7.940 102.000 12.070 99.093 15.872 95.599 C 19.017 92.708 24.997 82.018 24.999 79.283 C 25.000 78.613 28.488 74.710 32.750 70.608 C 37.013 66.507 42.975 60.004 46.000 56.158 L 51.500 49.165 49.221 57.332 C 46.159 68.309 46.240 71.760 49.587 73.033 C 54.759 74.999 63.375 68.780 73.187 56.000 L 75.874 52.500 74.437 57.409 C 72.172 65.147 72.520 70.639 75.394 72.523 C 80.318 75.749 86.875 71.274 97.100 57.710 C 100.504 53.195 103.022 50.400 102.694 51.500 C 101.158 56.656 97.000 71.953 97.000 72.446 C 97.000 72.751 98.086 73.000 99.414 73.000 C 101.358 73.000 102.557 71.685 105.572 66.250 C 113.737 51.531 121.651 42.000 125.708 42.000 C 126.969 42.000 128.000 42.604 128.000 43.343 C 128.000 44.082 126.433 49.594 124.518 55.593 C 120.356 68.633 120.240 70.456 123.440 72.552 C 125.681 74.021 126.165 74.016 129.385 72.487 C 132.818 70.859 138.306 65.489 144.706 57.500 L 147.910 53.500 145.963 60.000 C 143.418 68.493 143.449 71.635 146.091 73.049 C 147.646 73.881 148.911 73.865 151.030 72.987 C 154.263 71.648 162.926 62.829 167.959 55.752 C 169.817 53.140 171.468 51.134 171.628 51.295 C 171.788 51.455 170.787 55.149 169.404 59.505 C 168.021 63.860 167.145 68.441 167.457 69.683 C 168.297 73.031 171.530 74.437 175.041 72.983 C 178.652 71.487 186.492 63.240 191.563 55.603 L 195.461 49.733 195.145 57.286 C 194.750 66.768 196.620 71.390 201.506 73.002 C 205.448 74.303 210.863 72.462 215.140 68.365 C 216.820 66.756 218.024 66.230 218.449 66.918 C 220.863 70.823 229.065 65.147 235.987 54.781 C 241.287 46.844 241.172 45.004 235.850 52.587 C 227.562 64.396 222.521 68.121 219.251 64.851 C 218.386 63.986 218.447 63.036 219.498 61.003 C 221.544 57.047 223.405 45.748 222.562 42.398 L 221.833 39.500 219.451 42.266 C 216.154 46.094 214.660 52.369 215.384 59.353 C 215.965 64.953 215.857 65.331 212.890 68.103 C 206.763 73.826 201.000 70.868 201.000 62.001 C 201.000 58.228 201.699 56.516 205.072 52.027 C 216.428 36.913 221.118 25.346 221.704 11.000 L 222.092 1.500 217.289 6.556 C 212.461 11.637 201.533 31.316 198.994 39.500 C 196.149 48.670 179.104 70.548 175.360 69.834 C 172.341 69.259 172.698 66.245 177.464 52.073 C 179.947 44.688 181.812 38.479 181.608 38.274 C 181.403 38.070 180.162 38.172 178.849 38.502 C 177.235 38.907 175.496 40.949 173.485 44.801 C 169.910 51.649 159.914 65.136 156.316 67.966 C 154.894 69.085 152.891 70.000 151.865 70.000 C 148.897 70.000 149.521 65.508 154.454 51.355 C 156.904 44.326 158.695 38.362 158.435 38.101 C 158.174 37.841 156.796 38.049 155.371 38.564 C 153.574 39.213 152.250 40.906 151.047 44.092 C 147.440 53.644 133.741 70.000 129.348 70.000 C 126.121 70.000 126.279 67.920 130.495 54.880 C 133.388 45.929 133.797 43.649 132.873 41.620 C 129.731 34.725 122.425 38.961 110.891 54.364 C 106.103 60.758 105.947 60.556 108.427 51.163 C 109.693 46.366 111.387 43.266 115.394 38.407 C 122.099 30.278 125.541 23.952 127.572 16.024 C 129.175 9.766 128.879 3.661 126.913 2.446 C 126.358 2.103 124.339 3.482 122.426 5.509 M 30.000 40.003 C 31.269 40.825 30.680 42.574 26.186 51.333 C 20.341 62.724 15.096 69.000 11.421 69.000 C 5.405 69.000 6.374 60.572 13.628 49.804 C 19.799 40.644 25.617 37.161 30.000 40.003 M 217.382 14.250 C 219.099 23.479 213.517 38.504 203.636 51.250 C 201.489 54.020 201.208 53.358 202.203 47.881 C 204.647 34.435 213.378 11.000 215.943 11.000 C 216.402 11.000 217.049 12.463 217.382 14.250 M 123.729 17.055 C 123.188 23.021 119.324 31.544 114.460 37.500 C 111.357 41.300 111.262 39.722 113.961 29.153 C 116.438 19.451 118.637 13.203 120.662 10.112 C 122.131 7.871 122.322 7.824 123.250 9.483 C 123.802 10.468 124.017 13.876 123.729 17.055 M 20.512 82.250 C 18.610 89.127 16.511 93.234 13.678 95.626 L 10.500 98.308 10.153 95.948 C 9.555 91.870 11.890 86.304 15.547 83.093 C 19.730 79.420 21.372 79.142 20.512 82.250 "/></g>
<g fill="#5485ADFF" stroke="#5485ADFF">
<path d="M 58.170 24.526 C 57.144 26.777 57.283 27.172 59.446 28.157 C 64.093 30.275 67.196 26.387 63.250 23.392 C 60.670 21.434 59.455 21.705 58.170 24.526 "/></g>
</svg>
