<?xml version="1.0" encoding="utf-8"?>
<!DOCTYPE svg PUBLIC "-//W3C//DTD SVG 20010904//EN" "http://www.w3.org/TR/2001/REC-SVG-20010904/DTD/svg10.dtd">
<svg version="1.0" xmlns="http://www.w3.org/2000/svg" width="221pt" height="84pt" viewBox="0 0 221 84" style="" preserveAspectRatio="xMidYMid meet">
<g fill="#5485ADFF" stroke="#5485ADFF">
<path d="M 42.218 18.434 C 36.811 20.169 35.049 21.641 33.261 25.920 C 31.387 30.401 21.205 43.735 16.503 47.863 C 12.078 51.748 8.649 51.783 8.203 47.948 C 8.039 46.544 9.727 39.659 11.953 32.649 C 14.179 25.639 16.000 19.514 16.000 19.038 C 16.000 18.562 14.763 18.503 13.250 18.906 C 10.717 19.580 10.161 20.734 6.197 33.539 C 3.712 41.565 2.132 48.391 2.459 49.691 C 3.851 55.237 10.483 54.702 17.781 48.455 C 21.359 45.393 29.564 35.388 31.855 31.294 C 32.506 30.131 33.437 30.528 36.583 33.308 C 38.737 35.213 41.721 37.835 43.212 39.135 C 49.113 44.280 47.106 50.640 39.249 51.693 C 33.900 52.411 31.596 50.769 32.389 46.806 C 32.836 44.570 32.587 44.000 31.166 44.000 C 27.859 44.000 25.645 46.448 26.363 49.309 C 27.386 53.386 33.157 54.550 41.766 52.416 C 50.303 50.299 53.574 48.667 58.250 44.187 C 61.924 40.667 62.000 40.644 62.014 43.047 C 62.039 47.607 63.242 50.074 66.184 51.595 C 68.850 52.974 69.446 52.948 72.796 51.305 C 74.941 50.254 78.108 47.203 80.378 44.000 C 82.523 40.975 83.958 39.400 83.568 40.500 C 75.812 62.374 73.008 72.077 73.018 77.000 L 73.030 82.500 76.504 78.500 C 81.746 72.466 86.811 61.791 87.558 55.205 C 88.180 49.726 88.324 49.496 91.172 49.390 C 93.223 49.314 95.464 47.979 98.430 45.068 L 102.722 40.857 103.346 44.760 C 104.576 52.452 111.475 54.790 117.091 49.417 C 118.768 47.813 121.121 44.953 122.320 43.061 C 125.409 38.188 124.902 40.596 119.521 56.362 C 116.706 64.610 114.606 72.711 114.336 76.362 L 113.881 82.500 117.973 78.000 C 123.435 71.992 127.841 62.845 128.809 55.500 C 129.335 51.509 130.021 49.590 130.858 49.769 C 133.917 50.424 139.297 46.318 145.202 38.822 C 148.666 34.424 151.487 31.203 151.471 31.663 C 151.454 32.123 150.660 35.769 149.705 39.765 C 147.715 48.094 148.246 51.763 151.627 53.048 C 156.457 54.885 162.329 50.597 169.643 39.894 C 172.314 35.984 174.488 33.171 174.474 33.642 C 174.460 34.114 173.876 37.584 173.177 41.353 C 172.079 47.272 172.113 48.523 173.426 50.528 C 176.687 55.504 182.503 54.250 190.595 46.826 C 193.598 44.071 195.468 42.960 195.745 43.768 C 196.561 46.153 199.142 48.000 201.658 48.000 C 204.886 48.000 213.895 38.790 217.155 32.157 C 219.151 28.095 218.533 28.657 213.000 35.935 C 206.237 44.831 202.460 47.409 199.197 45.354 C 196.519 43.668 196.601 41.150 199.506 35.812 C 201.197 32.705 202.403 28.646 202.740 24.929 C 203.391 17.750 202.178 17.262 198.289 23.139 C 196.122 26.414 195.467 28.743 195.154 34.287 C 194.774 41.006 194.580 41.473 190.439 45.613 C 186.096 49.956 182.286 51.707 179.502 50.639 C 177.158 49.740 177.658 43.443 180.994 31.879 C 182.640 26.171 183.990 20.938 183.994 20.250 C 183.997 19.563 182.849 19.000 181.443 19.000 C 179.230 19.000 178.423 20.016 175.444 26.554 C 169.097 40.482 161.142 50.440 156.848 49.832 C 153.308 49.331 153.414 45.798 157.404 31.357 C 159.343 24.339 160.833 18.502 160.715 18.387 C 160.597 18.271 159.258 18.415 157.739 18.707 C 155.800 19.079 154.790 20.020 154.345 21.869 C 153.435 25.643 143.911 38.905 138.582 43.818 C 134.192 47.864 130.775 49.063 129.503 47.004 C 129.164 46.456 130.524 40.627 132.526 34.050 C 134.527 27.473 136.015 21.316 135.832 20.368 C 135.136 16.755 125.208 16.390 118.500 19.730 C 113.735 22.103 109.138 26.980 104.967 34.088 C 100.497 41.705 94.025 48.000 90.664 48.000 C 89.382 48.000 88.095 47.762 87.804 47.471 C 87.513 47.179 89.048 41.072 91.217 33.899 C 93.385 26.725 94.934 20.270 94.659 19.554 C 93.819 17.366 86.042 16.795 80.307 18.500 C 73.899 20.405 67.205 26.760 63.617 34.344 C 60.763 40.377 53.680 48.000 50.929 48.000 C 49.178 48.000 49.172 47.863 50.794 45.037 C 52.402 42.234 52.397 41.895 50.695 38.787 C 49.705 36.979 46.873 33.969 44.401 32.098 C 37.092 26.564 36.245 22.384 41.954 20.019 C 47.314 17.799 51.810 20.873 49.234 24.997 C 47.783 27.320 48.011 27.408 51.434 25.848 C 52.824 25.215 54.241 23.815 54.584 22.737 C 55.954 18.420 49.385 16.134 42.218 18.434 M 125.054 64.168 C 123.879 67.285 121.107 71.785 118.894 74.168 C 114.896 78.472 114.875 78.481 115.516 75.505 C 115.871 73.858 118.712 67.333 121.830 61.005 C 127.396 49.711 127.497 49.583 127.345 54.000 C 127.260 56.475 126.229 61.050 125.054 64.168 M 83.874 63.606 C 81.470 70.033 74.681 79.299 74.202 76.808 C 73.823 74.842 78.823 62.941 83.360 55.012 L 86.500 49.523 86.160 53.965 C 85.973 56.409 84.944 60.747 83.874 63.606 "/></g>
<g fill="#5485ADFF" stroke="#5485ADFF">
<path d="M 13.909 4.171 C 12.946 5.970 13.058 6.569 14.565 7.671 C 17.199 9.597 19.688 9.302 20.292 6.993 C 20.639 5.666 20.094 4.479 18.686 3.493 C 15.866 1.518 15.284 1.600 13.909 4.171 "/></g>
</svg>
