<?xml version="1.0" encoding="utf-8"?>
<!DOCTYPE svg PUBLIC "-//W3C//DTD SVG 20010904//EN" "http://www.w3.org/TR/2001/REC-SVG-20010904/DTD/svg10.dtd">
<svg version="1.0" xmlns="http://www.w3.org/2000/svg" width="749pt" height="100pt" viewBox="0 0 749 100" style="" preserveAspectRatio="xMidYMid meet">
<g fill="#000000FF" stroke="#000000FF">
<path d="M 45.844 4.394 C 29.223 10.331 13.560 28.803 5.383 52.113 C 2.244 61.059 1.008 77.398 2.999 83.607 C 6.702 95.154 17.735 100.587 32.169 97.969 C 42.425 96.109 47.384 92.897 60.851 79.389 C 67.645 72.575 73.340 67.000 73.508 67.000 C 73.676 67.000 71.155 73.783 67.907 82.073 C 64.658 90.363 62.000 97.338 62.000 97.573 C 62.000 97.808 62.614 98.000 63.364 98.000 C 64.114 98.000 65.528 95.863 66.506 93.250 C 72.012 78.536 86.457 60.438 95.414 57.033 C 103.365 54.010 104.073 60.001 97.631 75.791 C 92.214 89.067 91.694 91.235 93.156 94.443 C 94.662 97.749 98.493 97.825 102.818 94.634 C 106.909 91.616 117.284 79.920 121.343 73.750 C 123.062 71.138 124.751 69.000 125.096 69.000 C 125.442 69.000 124.227 72.938 122.396 77.750 C 117.476 90.681 118.042 96.000 124.339 96.000 C 130.197 96.000 138.708 89.197 147.351 77.606 C 149.358 74.915 151.000 72.993 151.000 73.335 C 151.000 73.678 149.875 77.309 148.500 81.405 C 145.266 91.038 145.236 94.695 148.378 96.126 C 150.227 96.969 151.536 96.839 154.267 95.544 C 157.710 93.910 172.725 79.416 177.102 73.500 C 180.860 68.422 190.356 58.924 193.149 57.450 C 195.452 56.236 195.964 56.252 197.060 57.573 C 198.984 59.891 196.929 67.143 190.121 82.063 C 186.894 89.134 184.497 95.163 184.794 95.460 C 186.071 96.738 187.145 95.596 191.109 88.750 C 202.034 69.881 212.722 57.706 219.474 56.439 C 226.597 55.103 226.685 58.044 220.000 74.195 C 214.383 87.768 213.640 93.202 217.147 95.079 C 220.856 97.064 225.945 94.687 232.792 87.773 C 240.985 79.499 244.675 74.275 243.299 72.899 C 242.561 72.161 241.547 72.842 239.911 75.173 C 236.233 80.415 226.768 90.068 223.800 91.603 C 215.626 95.831 215.653 91.432 223.915 72.265 C 227.936 62.937 228.827 56.970 226.540 54.682 C 222.235 50.378 213.570 54.220 204.219 64.581 L 198.262 71.182 199.686 65.592 C 201.560 58.231 200.135 54.658 195.133 54.178 C 192.100 53.888 191.050 54.607 184.140 61.715 C 179.938 66.037 172.249 74.229 167.054 79.921 C 157.941 89.903 153.026 93.988 150.120 93.996 C 147.578 94.003 149.500 86.064 156.004 69.692 C 163.628 50.501 163.068 47.603 154.435 61.572 C 142.776 80.435 131.135 93.000 125.319 93.000 C 120.194 93.000 121.018 88.058 129.499 67.914 C 132.524 60.728 135.000 54.432 135.000 53.924 C 135.000 52.151 132.471 53.017 131.126 55.250 C 125.530 64.544 107.794 86.746 102.738 90.787 C 94.262 97.561 93.406 92.797 100.246 76.918 C 105.374 65.016 106.346 61.039 104.995 57.487 C 102.221 50.190 93.264 52.565 82.654 63.411 C 77.595 68.584 75.928 69.824 76.491 68.000 C 78.394 61.823 81.605 56.722 89.117 47.940 C 109.735 23.837 116.378 11.521 111.429 6.571 C 110.564 5.707 108.586 5.000 107.032 5.000 C 101.511 5.000 96.293 13.429 84.084 42.072 C 78.188 55.905 77.403 57.173 68.606 67.072 C 55.784 81.501 47.197 89.266 40.338 92.633 C 35.376 95.070 33.298 95.498 26.493 95.487 C 16.106 95.471 10.402 92.501 6.860 85.264 C 2.173 75.687 4.327 59.191 12.444 42.500 C 22.896 21.010 39.674 6.003 53.250 6.001 C 58.884 6.000 61.559 8.134 62.550 13.417 C 63.962 20.940 58.407 33.491 52.467 36.197 C 49.806 37.409 49.095 40.000 51.423 40.000 C 55.797 40.000 63.199 29.835 65.025 21.319 C 67.945 7.703 58.907 -0.272 45.844 4.394 M 110.000 11.453 C 110.000 15.395 99.003 32.409 90.579 41.500 L 85.019 47.500 88.377 39.500 C 97.893 16.833 104.646 6.159 108.527 7.649 C 109.405 7.986 110.000 9.523 110.000 11.453 "/></g>
<g fill="#000000FF" stroke="#000000FF">
<path d="M 606.479 4.871 C 602.016 6.898 593.295 15.975 592.406 19.519 C 591.619 22.656 592.286 26.607 593.500 26.000 C 594.050 25.725 594.423 24.850 594.329 24.056 C 593.839 19.925 601.263 10.857 607.858 7.531 C 616.781 3.031 620.658 10.225 623.451 36.461 L 624.830 49.422 618.236 57.461 C 605.714 72.725 591.997 87.769 587.537 91.129 C 583.002 94.545 581.744 97.000 584.527 97.000 C 586.614 97.000 601.319 82.096 613.923 67.207 C 624.597 54.597 625.944 53.849 625.991 60.500 C 626.040 67.513 629.185 83.724 631.460 88.693 C 633.396 92.922 634.700 94.394 637.571 95.594 C 644.500 98.489 650.670 94.623 664.031 79.017 C 669.185 72.996 673.575 68.241 673.785 68.452 C 673.995 68.662 672.555 72.865 670.584 77.791 C 662.794 97.260 668.147 102.804 681.908 89.519 L 688.500 83.155 688.596 87.579 C 688.834 98.556 699.932 99.915 709.969 90.195 L 714.818 85.500 715.308 89.939 C 716.090 97.040 721.004 99.015 727.657 94.903 C 732.981 91.612 747.423 75.023 746.108 73.708 C 745.322 72.922 743.985 73.856 741.311 77.059 C 729.757 90.899 722.917 95.836 719.373 92.895 C 716.416 90.440 718.343 82.742 725.670 67.745 C 730.616 57.620 732.095 53.695 731.273 52.873 C 729.479 51.079 718.125 52.349 712.720 54.949 C 706.696 57.847 698.973 64.752 693.715 71.942 C 688.235 79.436 673.652 94.000 671.629 94.000 C 670.446 94.000 670.000 93.077 670.000 90.626 C 670.000 86.086 671.956 80.716 678.702 66.739 C 685.201 53.274 685.049 49.687 678.330 57.946 C 676.106 60.681 671.576 65.974 668.263 69.709 C 664.951 73.444 660.078 78.975 657.434 82.000 C 643.765 97.642 636.235 97.746 632.094 82.352 C 630.864 77.780 628.000 57.197 628.000 52.929 C 628.000 50.946 631.587 45.849 641.539 33.689 C 648.985 24.591 657.760 14.363 661.039 10.960 C 666.777 5.003 668.045 3.000 666.077 3.000 C 663.704 3.000 649.251 19.027 632.034 40.750 C 630.181 43.088 628.343 45.000 627.950 45.000 C 627.557 45.000 626.923 41.513 626.541 37.250 C 625.037 20.450 621.559 8.371 617.249 4.981 C 614.144 2.539 611.668 2.513 606.479 4.871 M 727.804 55.750 C 716.284 79.550 710.367 88.077 702.746 91.858 C 697.002 94.707 693.411 94.168 691.858 90.222 C 688.531 81.769 700.946 63.759 714.500 57.375 C 719.154 55.182 728.639 54.024 727.804 55.750 "/></g>
<g fill="#000000FF" stroke="#000000FF">
<path d="M 489.686 53.974 C 476.035 59.308 463.000 75.727 463.000 87.588 C 463.000 91.833 467.508 97.013 471.173 96.978 C 475.125 96.941 481.510 93.433 485.852 88.914 L 490.000 84.597 490.000 89.242 C 490.000 94.265 492.309 97.000 496.551 97.000 C 500.545 97.000 507.652 91.027 517.039 79.780 C 530.391 63.782 537.366 57.000 540.463 57.000 C 542.678 57.000 543.000 57.429 543.000 60.374 C 543.000 64.582 541.345 69.303 534.830 83.688 C 530.055 94.228 529.334 97.148 531.896 95.564 C 532.463 95.214 535.407 90.711 538.440 85.558 C 549.635 66.537 560.749 55.381 567.708 56.180 C 570.210 56.467 570.472 56.849 570.232 59.854 C 570.085 61.699 567.950 68.125 565.489 74.134 C 560.045 87.426 559.136 91.994 561.471 94.328 C 563.509 96.366 565.063 96.419 569.422 94.597 C 573.900 92.726 580.013 87.087 585.552 79.719 C 592.264 70.791 589.568 70.252 582.380 79.086 C 575.171 87.944 570.255 92.011 566.418 92.289 C 563.692 92.486 563.507 92.270 563.606 89.000 C 563.664 87.075 565.644 81.000 568.007 75.500 C 572.688 64.602 574.092 57.021 571.916 54.399 C 569.878 51.943 563.145 53.116 557.676 56.879 C 555.155 58.614 551.159 62.508 548.796 65.533 C 544.247 71.358 544.082 71.268 545.408 63.672 C 546.487 57.488 545.068 54.000 541.472 54.000 C 536.072 54.000 530.996 58.393 517.788 74.500 C 508.193 86.200 499.697 94.000 496.549 94.000 C 490.112 94.000 491.584 84.633 500.909 66.254 C 504.327 59.519 506.844 53.556 506.502 53.004 C 505.478 51.347 494.840 51.961 489.686 53.974 M 496.615 67.052 C 487.951 84.128 480.886 92.180 473.324 93.599 C 468.129 94.574 465.661 91.878 466.240 85.859 C 466.851 79.491 470.120 73.570 476.831 66.674 C 484.671 58.618 491.060 55.216 498.615 55.076 L 502.730 55.000 496.615 67.052 "/></g>
<g fill="#000000FF" stroke="#000000FF">
<path d="M 273.500 4.843 C 258.177 12.098 246.000 34.622 246.000 55.710 C 246.000 63.870 247.686 68.448 251.090 69.528 C 254.391 70.576 255.884 68.286 252.691 67.073 C 249.483 65.853 248.448 62.612 248.650 54.414 C 249.113 35.646 260.785 14.273 274.230 7.572 C 283.771 2.818 292.671 4.570 298.408 12.330 C 300.237 14.803 300.491 16.501 300.425 25.830 C 300.359 35.336 299.993 37.459 297.067 45.287 C 291.539 60.082 279.244 76.507 266.927 85.552 L 262.354 88.911 257.518 87.455 C 254.858 86.655 250.706 86.000 248.291 86.000 C 240.185 86.000 234.797 90.909 238.461 94.957 C 241.864 98.717 249.098 98.314 258.628 93.835 C 262.814 91.867 262.831 91.867 269.516 93.932 C 287.387 99.452 296.227 95.127 313.924 72.204 C 315.749 69.841 317.416 68.082 317.629 68.296 C 317.842 68.509 316.625 72.017 314.924 76.092 C 311.139 85.157 310.006 93.931 312.368 95.891 C 313.389 96.738 314.977 96.972 316.728 96.532 C 319.899 95.736 334.939 80.895 339.887 73.680 C 341.705 71.029 343.371 69.038 343.590 69.256 C 343.808 69.475 342.640 73.344 340.993 77.856 C 337.851 86.466 337.183 92.783 339.200 94.800 C 343.372 98.972 353.931 92.783 363.419 80.603 C 369.477 72.826 371.369 71.451 368.574 76.857 C 367.708 78.531 366.348 82.696 365.551 86.112 C 363.324 95.659 366.018 98.622 373.594 94.955 C 380.548 91.588 397.245 73.000 393.315 73.000 C 392.938 73.000 388.946 76.948 384.443 81.774 C 375.675 91.170 369.844 95.244 367.918 93.318 C 366.423 91.823 368.624 84.331 375.626 67.086 C 379.058 58.634 380.722 53.322 380.124 52.724 C 379.527 52.127 378.150 53.390 376.402 56.138 C 365.441 73.368 361.728 78.404 354.934 85.250 C 348.730 91.501 346.660 93.000 344.228 93.000 C 342.502 93.000 340.974 92.373 340.651 91.533 C 339.864 89.481 342.384 81.478 348.108 67.855 C 352.833 56.607 353.964 52.467 352.122 53.167 C 351.639 53.350 347.068 59.125 341.964 66.000 C 332.024 79.387 318.276 94.000 315.621 94.000 C 311.676 94.000 314.282 83.787 322.878 65.563 C 325.714 59.552 327.657 54.257 327.196 53.796 C 326.456 53.056 319.185 61.172 303.277 80.500 C 293.925 91.862 286.074 94.901 273.402 92.065 C 267.400 90.722 265.786 89.250 268.610 87.696 C 272.195 85.722 284.234 73.484 288.633 67.344 C 297.857 54.465 303.943 37.626 303.983 24.876 C 304.040 6.174 290.073 -3.005 273.500 4.843 M 256.000 89.966 C 258.490 90.731 258.486 90.740 255.000 92.275 C 249.688 94.615 244.490 95.333 242.105 94.056 C 240.947 93.437 240.000 92.481 240.000 91.933 C 240.000 89.470 250.269 88.208 256.000 89.966 "/></g>
<g fill="#000000FF" stroke="#000000FF">
<path d="M 407.939 5.334 C 400.954 7.265 395.000 12.143 395.000 15.934 C 395.000 17.882 397.510 17.035 398.513 14.750 C 400.548 10.110 414.312 5.491 418.856 7.923 C 423.125 10.208 422.397 12.396 397.086 73.398 C 392.089 85.443 388.000 95.943 388.000 96.732 C 388.000 101.018 391.138 95.435 397.997 78.946 C 409.650 50.932 418.315 34.891 428.554 22.377 C 437.673 11.232 443.858 7.000 451.027 7.000 C 454.255 7.000 455.791 7.637 458.077 9.923 C 460.580 12.426 460.999 13.612 460.990 18.173 C 460.980 23.962 458.053 31.441 453.425 37.509 C 449.695 42.399 439.944 48.632 432.954 50.593 C 427.007 52.262 424.031 54.283 425.858 55.412 C 426.383 55.737 429.668 55.108 433.157 54.014 C 440.995 51.557 445.487 51.487 449.931 53.752 C 460.233 59.000 459.476 77.776 448.558 87.840 C 440.195 95.549 423.579 97.986 413.500 92.982 C 409.583 91.038 408.477 89.958 408.392 88.000 C 408.214 83.916 408.070 83.697 406.449 85.042 C 402.363 88.434 407.550 94.723 416.401 97.109 C 422.914 98.865 437.636 97.762 443.163 95.104 C 453.676 90.048 460.015 79.725 459.984 67.712 C 459.962 59.525 457.159 54.396 450.889 51.073 L 446.311 48.646 452.169 42.913 C 462.669 32.640 467.040 17.718 461.808 10.015 C 457.502 3.676 450.291 2.228 442.298 6.098 C 437.108 8.610 427.903 17.591 422.548 25.366 C 420.413 28.465 418.499 30.832 418.294 30.627 C 418.088 30.421 419.288 26.810 420.960 22.601 C 424.673 13.253 424.902 8.627 421.750 6.597 C 418.359 4.413 413.030 3.926 407.939 5.334 "/></g>
<g fill="#000000FF" stroke="#000000FF">
<path d="M 690.667 25.667 C 690.300 26.033 690.000 27.415 690.000 28.736 C 690.000 30.656 690.452 31.075 692.250 30.820 C 695.261 30.392 696.172 25.000 693.233 25.000 C 692.188 25.000 691.033 25.300 690.667 25.667 "/></g>
<g fill="#000000FF" stroke="#000000FF">
<path d="M 334.667 25.667 C 334.300 26.033 334.000 27.415 334.000 28.736 C 334.000 30.656 334.452 31.075 336.250 30.820 C 339.261 30.392 340.172 25.000 337.233 25.000 C 336.188 25.000 335.033 25.300 334.667 25.667 "/></g>
</svg>
